<?xml version="1.0" encoding="utf-8"?><svg
  xmlns="http://www.w3.org/2000/svg"
  xmlns:xlink="http://www.w3.org/1999/xlink"
  width="1024"
  height="1024"
  viewBox="0 0 1024 1024"
>
  <path
    fill="white"
    d="M525.925 867.818C329.797 875.462 164.539 722.81 156.628 526.693C148.717 330.576 301.144 165.11 497.25 156.933C693.734 148.74 859.587 301.524 867.513 498.019C875.439 694.513 722.43 860.159 525.925 867.818ZM507.292 258.661C469.612 261.222 441.159 293.872 443.774 331.549C446.389 369.225 479.079 397.632 516.752 394.963C554.349 392.3 582.685 359.69 580.076 322.089C577.466 284.488 544.897 256.105 507.292 258.661ZM509.468 407.438L509.501 443.655C509.605 468.508 509.082 476.386 490.725 494.634C476.529 508.744 465.95 509.128 446.984 509.119L420.067 509.069C416.932 509.056 408.67 508.042 406.396 509.946C406.041 511.455 406.005 512.426 406.18 513.968C409.573 516.066 455.971 513.758 465.249 515.129C468.924 515.672 472.617 516.749 475.935 518.437C482.438 521.746 487.721 527.49 492.814 532.609C499.747 539.576 505.887 546.626 508.136 556.448C510.037 564.748 509.123 574.352 509.081 582.845L508.975 616.592L514.652 616.445L514.559 581.38C514.481 558.826 513.897 549.281 530.716 532.459C546.346 516.827 552.095 514.726 573.899 514.654L604.948 514.664C608.171 514.673 615.756 515.689 618.273 513.955C618.426 512.311 618.482 510.726 618.436 509.077C604.968 509.032 563.691 510.589 553.156 507.272C544.685 504.606 537.824 499.36 531.655 493.111C515.748 476.997 514.758 468.91 514.846 447.089L514.987 416.749C515.014 413.88 515.18 411.056 514.594 408.226C513.438 407.139 511.035 407.423 509.468 407.438ZM322.024 445.82C285.195 448.607 257.611 480.742 260.436 517.568C263.262 554.394 295.425 581.944 332.248 579.079C369.017 576.219 396.517 544.114 393.696 507.343C390.874 470.572 358.798 443.038 322.024 445.82ZM688.471 445.639C651.935 450.546 626.24 484.067 630.995 520.623C635.749 557.179 669.163 583.013 705.739 578.411C742.53 573.782 768.55 540.128 763.767 503.356C758.985 466.584 725.223 440.704 688.471 445.639ZM509.131 628.905C471.092 630.616 441.681 662.903 443.516 700.935C445.351 738.968 477.735 768.273 515.762 766.313C553.611 764.361 582.751 732.16 580.924 694.304C579.097 656.448 546.993 627.203 509.131 628.905Z"
  />
</svg>
