<svg width="1080" height="1080" viewBox="0 0 1080 1080" fill="none" xmlns="http://www.w3.org/2000/svg">
<g clip-path="url(#clip0_1_3)">
<path d="M561.031 1079.58C263.313 1091.19 12.4558 859.465 0.447073 561.764C-11.5616 264.063 219.819 12.8902 517.503 0.477706C815.761 -11.9591 1067.52 219.963 1079.55 518.238C1091.58 816.511 859.32 1067.96 561.031 1079.58ZM532.746 154.898C475.549 158.786 432.358 208.348 436.328 265.54C440.297 322.732 489.92 365.853 547.106 361.801C604.178 357.759 647.191 308.258 643.231 251.18C639.269 194.103 589.83 151.018 532.746 154.898ZM536.049 380.738L536.1 435.715C536.257 473.441 535.463 485.399 507.598 513.099C486.049 534.518 469.99 535.101 441.2 535.087L400.341 535.011C395.582 534.992 383.041 533.452 379.589 536.343C379.05 538.633 378.995 540.107 379.261 542.448C384.411 545.633 454.842 542.129 468.926 544.21C474.505 545.035 480.111 546.669 485.147 549.232C495.019 554.255 503.038 562.974 510.769 570.745C521.293 581.32 530.614 592.022 534.027 606.932C536.913 619.531 535.526 634.109 535.462 647.001L535.301 698.229L543.919 698.006L543.777 644.778C543.659 610.541 542.773 596.052 568.303 570.517C592.029 546.788 600.756 543.599 633.854 543.489L680.986 543.504C685.878 543.518 697.392 545.06 701.213 542.428C701.445 539.933 701.53 537.527 701.46 535.024C681.016 534.955 618.359 537.319 602.367 532.284C589.508 528.237 579.093 520.273 569.729 510.788C545.582 486.327 544.08 474.051 544.213 440.927L544.427 394.872C544.468 390.517 544.72 386.23 543.831 381.934C542.076 380.284 538.428 380.715 536.049 380.738ZM251.514 439.001C195.609 443.232 153.737 492.012 158.025 547.913C162.315 603.814 211.137 645.634 267.034 641.285C322.848 636.943 364.593 588.209 360.31 532.391C356.027 476.574 307.336 434.778 251.514 439.001ZM807.772 438.726C752.311 446.175 713.306 497.059 720.524 552.55C727.741 608.041 778.462 647.257 833.984 640.271C889.832 633.244 929.33 582.158 922.069 526.339C914.81 470.52 863.56 431.235 807.772 438.726ZM535.538 716.92C477.796 719.517 433.15 768.528 435.936 826.259C438.721 883.992 487.88 928.477 545.604 925.501C603.057 922.538 647.291 873.658 644.518 816.194C641.745 758.729 593.011 714.336 535.538 716.92Z" fill="#2E6AC6"/>
</g>
<defs>
<clipPath id="clip0_1_3">
<rect width="1080" height="1080" fill="white"/>
</clipPath>
</defs>
</svg>
